# xmcd
#
# Track frame offsets:
# 150
# 18852
# 37347
# 55847
# 74157
# 91977
# 111657
# 138165
# 156482
# 174839
# 193273
# 211961
# 230571
# 248864
#
# Disc length: 3563 seconds
#
#
# Revision: 0
# Processed by: cddbd v1.4PL0 Copyright (c) Steve Scherf et al.
# Submitted via: FreeRIP 2.35 
#
DISCID=d10de90e
DTITLE=New age music box 新天籟世紀音樂盒
DYEAR=2003
DGENRE=National Folk
TTITLE0=AnyWhere 四處皆然
TTITLE1=Munmer's Dance 優伶之舞
TTITLE2=Adiemus 阿迪瑪斯
TTITLE3=Innocent Voice 天籟之聲
TTITLE4=Time to say goodbye 告別時刻
TTITLE5=Nocturne 夜晚
TTITLE6=L'arrivee dans le jour 疑問與恩惠
TTITLE7=Heaven 天堂
TTITLE8=Who wants to live forever 誰想長生不老
TTITLE9=Tares de bolonha 波隆之夜
TTITLE10=Colors dance 彤彩繽紛之舞
TTITLE11=Connie's butterfly 康妮之舞
TTITLE12=The Rose 玫瑰
TTITLE13=You must love me 你必需愛我
EXTD=
EXTT0=
EXTT1=
EXTT2=
EXTT3=
EXTT4=
EXTT5=
EXTT6=
EXTT7=
EXTT8=
EXTT9=
EXTT10=
EXTT11=
EXTT12=
EXTT13=
PLAYORDER=
